<?xml version="1.0" encoding="UTF-8"?>
<svg width="140px" height="40px" viewBox="0 0 140 40" version="1.1" xmlns="http://www.w3.org/2000/svg" xmlns:xlink="http://www.w3.org/1999/xlink">
    <title>europa</title>
    <g id="europa" stroke="none" stroke-width="1" fill="none" fill-rule="evenodd">
        <g id="Group" transform="translate(16.000000, 9.000000)" fill="#446AEB" fill-rule="nonzero">
            <path d="M84.2110425,8 L84.1564766,8 C83.1686293,8 82.3675191,8.78896039 82.3675191,9.76182578 L82.3675191,14.0103496 C82.3675191,15.3426657 81.2705398,16.4234061 79.9173021,16.4238041 L77.0932069,16.4246003 C75.7339064,16.4238041 74.6320768,15.3398793 74.6320768,14.0015923 C74.6320768,12.6577324 74.6316725,11.0149274 74.6316725,9.78769986 C74.6316725,8.80010615 73.8188408,8 72.8160384,8 C71.8128318,8 71,8.79931003 71,9.78730181 C71,11.2672991 71,13.245273 71,14 C71,17.3086977 73.7331519,20 77.0928027,20 L79.9080058,20 C83.2672524,20 86,17.3086977 86,14 C86,13.1545147 86,11.2087839 86,9.76063159 C86,8.78776621 85.1988899,8 84.2110425,8" id="Fill-2"></path>
            <path d="M37.9016217,16.3966723 L35.0837637,16.3966723 C33.7254925,16.3966723 32.6227295,15.303163 32.6178857,13.9538198 C32.6162712,13.4774395 32.6150602,13.1077235 32.6154639,13.0571983 C32.6227295,12.2054881 33.3182129,11.5169823 34.1755585,11.5169823 L38.8070014,11.5169823 C39.6635398,11.5169823 40.3602341,12.2030822 40.3666924,13.0543914 C40.3666924,13.1017086 40.3670961,13.4690186 40.3675001,13.943795 C40.368307,15.2971481 39.2639295,16.3966723 37.9016217,16.3966723 M40.8764983,7.55556732 L40.1232935,8.33710368 C39.4326538,8.06603206 38.6826782,7.91164957 37.8959707,7.91164957 L35.084571,7.91164957 C31.7294593,7.91164957 29,10.6231677 29,13.9558248 C29,17.2888828 31.7294593,20 35.084571,20 L37.8959707,20 C41.2506788,20 43.9797345,17.2888828 43.9797345,13.9558248 C43.9797345,12.7179578 43.6023248,11.5671064 42.9568936,10.6079299 L43.4973766,10.04694 C44.1888235,9.32876063 44.1637974,8.18592913 43.4412697,7.49942823 C42.7183384,6.81212535 41.5679452,6.83738795 40.8764983,7.55556732" id="Fill-4"></path>
            <path d="M65.9997774,2 C64.8972961,2 64,2.78642481 64,3.75268188 L64,18.2477082 C64,19.2135752 64.8972961,20 65.9997774,20 C67.103149,20 68,19.2135752 68,18.2477082 L68,3.75268188 C68,2.78642481 67.103149,2 65.9997774,2" id="Fill-6"></path>
            <path d="M24.0002226,0 C22.896851,0 22,0.785291365 22,1.75054534 L22,3.24945466 C22,4.21470863 22.896851,5 24.0002226,5 C25.102704,5 26,4.21470863 26,3.24945466 L26,1.75054534 C26,0.785291365 25.102704,0 24.0002226,0" id="Fill-8"></path>
            <path d="M23.9997774,8 C22.8972961,8 22,8.80238806 22,9.78825869 L22,18.2121393 C22,19.1980099 22.8972961,20 23.9997774,20 C25.1027039,20 26,19.1980099 26,18.2121393 L26,9.78825869 C26,8.80238806 25.1027039,8 23.9997774,8" id="Fill-10"></path>
            <path d="M42.2253157,21.2858599 C41.4208375,20.7700623 40.3405493,20.9700274 39.8044898,21.7426023 C39.7745359,21.7829691 39.0540845,22.7409323 37.4704139,23.3083097 C35.8890775,23.8741919 34.1381315,23.5303268 34.1295733,23.5284581 C33.1866065,23.3299881 32.2510311,23.899608 32.0417423,24.806739 C31.8328425,25.7138699 32.4284209,26.6116567 33.3721655,26.812743 C33.5211575,26.8445132 34.308519,27 35.3954204,27 C36.3422772,27 37.5167064,26.8818898 38.6934697,26.4602813 C41.3383668,25.5124099 42.5719259,23.8177532 42.7038013,23.6282537 C43.2398606,22.8549311 43.0294049,21.8012837 42.2253157,21.2858599" id="Fill-12"></path>
            <path d="M55.9009701,16.4954488 L53.0893291,16.496229 C51.7320129,16.4954488 50.6317705,15.4336291 50.6309621,14.1237134 L50.6297494,11.747687 L56.8201293,11.7480771 C57.6778497,11.7480771 58.3759095,12.4155177 58.3819726,13.2432846 C58.3823767,13.2889249 58.382781,13.6403943 58.3831856,14.0964072 C58.3839935,15.4199761 57.2724333,16.4950588 55.9009701,16.4954488 M55.9078415,8.24040519 L50.6325788,8.24040519 L50.6325788,3.752442 C50.6325788,2.73314188 49.7255456,1.91434703 48.6491512,2.00718799 C47.6968473,2.08949657 47,2.92194451 47,3.84489287 L47,8.24040519 L47,14.1202026 C47,17.3626146 49.7328214,20 53.0925626,20 L55.9078415,20 C59.2671786,20 62,17.3626146 62,14.1202026 C62,10.8781807 59.2671786,8.24040519 55.9078415,8.24040519" id="Fill-14"></path>
            <path d="M13.0629459,16.4954488 L10.3259754,16.496229 C9.00470644,16.4954488 7.93368375,15.4336291 7.93289682,14.1237134 L7.93132294,11.747687 L13.9576945,11.7480771 C14.7926357,11.7480771 15.4721568,12.4155177 15.4780588,13.2432846 C15.4784522,13.2889249 15.4788457,13.6403943 15.4792393,14.0964072 C15.4796327,15.4199761 14.3979863,16.4950588 13.0629459,16.4954488 M13.0696349,8.24040519 L9.64448706,8.24040519 L7.93447069,8.24040519 L7.93447069,3.752442 C7.93447069,2.73314188 7.05152621,1.91434703 6.0037182,2.00718799 C5.07631171,2.08949657 4.39836459,2.92194451 4.39836459,3.84489287 L4.39836459,8.24040519 L1.7676307,8.24040519 C0.739496143,8.24040519 -0.0863953354,9.1157628 0.007250292,10.1545673 C0.090272256,11.0740049 0.92993515,11.7461267 1.86088286,11.7461267 L4.39836459,11.7461267 L4.39836459,14.1202026 C4.39836459,17.3626146 7.05860864,20 10.3291232,20 L13.0696349,20 C16.3397559,20 19,17.3626146 19,14.1202026 C19,10.8781807 16.3397559,8.24040519 13.0696349,8.24040519" id="Fill-16"></path>
            <path d="M94.8281071,16.423008 C93.5265857,16.423008 92.4705978,15.3394812 92.4659398,14 L92.4659398,13.9824852 C92.4609312,12.6565381 93.504159,11.5789823 94.792147,11.5789823 L97.7660035,11.5789823 C98.5729777,11.5789823 99.2272185,12.24932 99.2330185,13.0796789 C99.2330185,13.0880383 99.2330185,13.0963975 99.2330185,13.1051549 C99.2334051,13.1314271 97.7795369,15.2781795 97.0031094,16.423008 L94.8281071,16.423008 Z M105.262318,16.423008 L101.169061,16.423008 L101.974875,15.3999868 C103.158463,13.8972998 103.223809,11.723081 102.039448,10.2211902 C100.972247,8.86698069 99.3447653,8 97.52163,8 L94.9970805,8 C91.8627573,8 89.1618877,10.4747562 89.0072208,13.6974723 C88.8425007,17.1431035 91.5174635,20 94.8284937,20 L105.262318,20 C106.222026,20 107,19.1994957 107,18.2115039 C107,17.2239103 106.222026,16.423008 105.262318,16.423008 Z" id="Fill-18"></path>
        </g>
    </g>
</svg>