<?xml version="1.0" encoding="UTF-8"?>
<svg width="140px" height="40px" viewBox="0 0 140 40" version="1.1" xmlns="http://www.w3.org/2000/svg" xmlns:xlink="http://www.w3.org/1999/xlink">
    <title>europa</title>
    <g id="europa" stroke="none" stroke-width="1" fill="none" fill-rule="evenodd">
        <g id="image" transform="translate(7.000000, 1.759690)" fill-rule="nonzero">
            <g id="Group-18-Copy" transform="translate(0.000000, 0.240310)">
                <path d="M0,12.0671642 C0,12.0671642 19.4577778,9.50597015 20.0444444,9.40746269 C20.8755556,9.25970149 21.6577778,9.1119403 22.3422222,8.91492537 C23.9066667,8.47164179 25.3733333,7.83134328 26.6444444,6.94477612 C27.8666667,6.10746269 29.04,4.8761194 30.1644444,3.54626866 C30.8977778,2.70895522 31.6311111,1.5761194 32.3644444,0.492537313 L32.3644444,0 C31.5333333,1.28059701 30.7022222,2.3641791 29.8711111,3.3 C28.7466667,4.58059701 27.5733333,5.61492537 26.3511111,6.40298507 C25.1288889,7.19104478 23.7111111,7.83134328 22.1955556,8.22537313 C21.5111111,8.42238806 20.7777778,8.52089552 19.9466667,8.66865672 C19.4088889,8.76716418 18.8711111,8.81641791 18.3333333,8.86567164 C18.0888889,8.86567164 0,10.7865672 0,10.7865672 L0,12.0671642 Z" id="Fill-40" fill="#BBBDBF"></path>
                <path d="M26.1066667,8.76716418 C24.8844444,9.45671642 23.4666667,9.99850746 21.9022222,10.2940299 C21.2177778,10.441791 20.5333333,10.5402985 19.7022222,10.638806 C19.2133333,10.6880597 18.7244444,10.7373134 18.2355556,10.7865672 C17.9911111,10.7865672 17.6977778,10.8358209 17.4533333,10.8358209 C11.4888889,11.4268657 5.57333333,11.9686567 0,12.5104478 L0,13.7910448 C5.57333333,13.1014925 11.5866667,12.3626866 17.5511111,11.6731343 C17.7955556,11.6238806 18.0888889,11.6238806 18.3333333,11.5746269 C18.8222222,11.5253731 19.3111111,11.4761194 19.8,11.3776119 C20.6311111,11.2791045 21.4133333,11.1313433 22.0488889,10.9835821 C23.6622222,10.638806 25.1288889,10.0477612 26.4,9.25970149 C27.6711111,8.47164179 28.7466667,7.43731343 29.9688889,6.10746269 C30.7022222,5.27014925 31.5333333,4.13731343 32.3155556,3.05373134 L32.3155556,2.56119403 C31.3866667,3.79253731 30.5555556,4.8761194 29.6755556,5.76268657 C28.5022222,7.09253731 27.3288889,8.07761194 26.1066667,8.76716418" id="Fill-41" fill="#BBBDBF"></path>
                <path d="M29.5288889,8.47164179 C28.3555556,9.55522388 27.0844444,10.441791 25.8622222,11.0820896 C24.64,11.6731343 23.2711111,12.1164179 21.6577778,12.3626866 C20.9733333,12.461194 20.2888889,12.5597015 19.4577778,12.658209 L0,14.2343284 L0,15.5149254 L17.2577778,13.6432836 L19.5066667,13.3970149 C20.3377778,13.2985075 21.0711111,13.2 21.7555556,13.0522388 C23.4177778,12.7567164 24.8355556,12.2641791 26.1066667,11.6238806 C27.4266667,10.9343284 28.6977778,9.85074627 29.92,8.66865672 C30.7511111,7.88059701 31.4844444,6.84626866 32.3155556,5.8119403 L32.3155556,5.36865672 C31.3377778,6.6 30.4577778,7.58507463 29.5288889,8.47164179" id="Fill-42" fill="#BBBDBF"></path>
                <path d="M24.8355556,15.0716418 C23.7111111,15.7119403 22.88,16.1059701 21.2666667,16.2537313 C20.2888889,16.3522388 19.3111111,16.4014925 18.3333333,16.4507463 C17.8444444,16.4507463 17.4044444,16.5 16.9155556,16.5492537 C13.9822222,16.6970149 11.0977778,16.8940299 8.16444444,17.0910448 L0,17.6820896 L0,18.9626866 L8.21333333,18.1746269 C10.8533333,17.9283582 13.9333333,17.6328358 16.9644444,17.3865672 L19.1644444,17.238806 C19.9955556,17.1895522 20.7288889,17.0910448 21.3644444,16.9925373 C23.0266667,16.7955224 24.4444444,16.4507463 25.7155556,15.958209 C27.0844444,15.4656716 28.3555556,14.6283582 29.6266667,13.6925373 C30.8,12.8552239 32.3644444,11.180597 32.3644444,11.1313433 L32.3644444,10.6880597 C31.3377778,11.7223881 30.7022222,12.3134328 29.5777778,13.0522388 C28.16,14.0373134 25.8622222,14.5298507 24.8355556,15.0716418" id="Fill-43" fill="#BBBDBF"></path>
                <path d="M25.2266667,17.5343284 C24.0044444,17.8791045 22.6355556,18.1253731 21.0222222,18.2731343 C20.3866667,18.3223881 19.6533333,18.3716418 18.8711111,18.4208955 L16.72,18.519403 C11.3422222,18.7656716 5.96444444,19.061194 0.0488888889,19.3567164 L0.0488888889,20.6373134 C5.72,20.1940299 11.2444444,19.7507463 16.8177778,19.3567164 L18.9688889,19.2089552 C19.8,19.1597015 20.4844444,19.1104478 21.1688889,19.0119403 C22.8311111,18.8149254 24.2488889,18.519403 25.4711111,18.1253731 C26.84,17.6820896 28.2088889,17.041791 29.48,16.2044776 C30.4088889,15.6134328 31.3866667,14.8746269 32.3644444,13.9880597 L32.3644444,13.9880597 C31.2888889,14.9238806 30.2622222,15.1208955 29.2355556,15.761194 C27.9155556,16.5492537 26.5955556,17.1402985 25.2266667,17.5343284" id="Fill-44" fill="#BBBDBF"></path>
                <path d="M25.0311111,19.6522388 C23.8088889,19.9477612 22.44,20.1447761 20.8266667,20.2432836 C20.1911111,20.2925373 19.5066667,20.341791 18.6755556,20.341791 L16.5244444,20.4402985 C11.0977778,20.6373134 5.62222222,20.8835821 0,21.1298507 L0,22.4104478 C5.57333333,22.0164179 11.0488889,21.6716418 16.5733333,21.2776119 L18.7244444,21.1298507 C19.5555556,21.080597 20.24,21.0313433 20.8755556,20.9820896 C22.5377778,20.8343284 23.9066667,20.5880597 25.1777778,20.2432836 C26.5955556,19.8492537 27.9644444,19.3074627 29.2844444,18.6179104 C30.3111111,18.0761194 31.2888889,17.4358209 32.3155556,16.6477612 L32.3155556,16.1059701 C31.1911111,16.9432836 30.1155556,17.5835821 29.04,18.1253731 C27.7688889,18.8149254 26.4,19.3074627 25.0311111,19.6522388" id="Fill-45" fill="#BBBDBF"></path>
                <path d="M24.8355556,21.7208955 C23.6133333,21.9671642 22.2444444,22.1149254 20.6311111,22.1641791 C19.9955556,22.2134328 19.36,22.2134328 18.5288889,22.2626866 L0,22.7552239 L0,24.0358209 L16.4266667,23.1492537 L18.5777778,23.0507463 C19.4088889,23.0014925 20.0933333,22.9522388 20.7288889,22.9029851 C22.3911111,22.7552239 23.7111111,22.6074627 24.9822222,22.3119403 C26.4,22.0164179 27.8177778,21.5731343 29.1377778,20.9820896 C30.2133333,20.538806 31.24,19.9970149 32.3644444,19.3074627 L32.3644444,18.8149254 C31.1911111,19.5044776 30.0666667,20.0462687 28.9422222,20.4895522 C27.6222222,21.080597 26.2533333,21.4746269 24.8355556,21.7208955" id="Fill-46" fill="#BBBDBF"></path>
                <path d="M24.6888889,23.7895522 C22.3911111,24.0850746 20.0933333,24.1343284 17.7955556,24.1835821 C17.2577778,24.1835821 16.7688889,24.1835821 16.2311111,24.2328358 L0,24.5283582 L0,25.8089552 L16.28,25.119403 C16.8177778,25.119403 17.3066667,25.0701493 17.8444444,25.0701493 C20.1422222,24.9716418 22.4888889,24.8731343 24.7866667,24.5283582 C26.2533333,24.2820896 27.6711111,23.9373134 28.9422222,23.4940299 C30.0177778,23.1492537 31.1422222,22.6567164 32.2666667,22.0656716 L32.2666667,21.5731343 C31.0933333,22.1149254 29.8711111,22.6074627 28.7466667,22.9522388 C27.5244444,23.2970149 26.1555556,23.641791 24.6888889,23.7895522" id="Fill-47" fill="#BBBDBF"></path>
                <path d="M24.5911111,25.9074627 C22.44,26.1044776 20.2888889,26.1044776 18.1377778,26.1044776 C17.5022222,26.1044776 16.8177778,26.1044776 16.1822222,26.1044776 C10.8044444,26.1044776 5.42666667,26.1537313 0,26.2029851 L0,27.4835821 C5.18222222,27.2865672 10.7066667,27.138806 16.2311111,26.941791 C16.8666667,26.941791 17.5511111,26.8925373 18.1866667,26.8925373 C20.2888889,26.8432836 22.4888889,26.7940299 24.64,26.5477612 C26.1555556,26.4 27.5244444,26.1537313 28.8444444,25.8089552 C29.9688889,25.5134328 31.1422222,25.119403 32.3644444,24.6761194 L32.3644444,24.2328358 C31.1422222,24.6761194 29.92,25.0208955 28.7466667,25.3164179 C27.4266667,25.6119403 26.0577778,25.8089552 24.5911111,25.9074627" id="Fill-48" fill="#BBBDBF"></path>
                <path d="M24.4933333,27.9761194 C23.6133333,28.0253731 22.6355556,28.0253731 21.56,28.0253731 C21.1688889,28.0253731 20.7288889,28.0253731 20.3377778,28.0253731 L16.1333333,27.9761194 C13.2488889,27.9761194 10.4133333,27.9268657 7.72444444,27.9268657 L0,27.9761194 L0,29.2567164 L7.77333333,29.0597015 C10.4622222,29.0104478 13.2977778,28.9119403 16.1333333,28.8626866 L20.3377778,28.8134328 C21.5111111,28.8134328 23.0266667,28.7641791 24.5422222,28.6656716 C26.0577778,28.5671642 27.4266667,28.419403 28.7466667,28.2223881 C29.92,28.0253731 31.1422222,27.7791045 32.3644444,27.4835821 L32.3644444,27.0402985 C31.1422222,27.3358209 29.8711111,27.5820896 28.6977778,27.7298507 C27.3288889,27.8283582 26.0088889,27.9268657 24.4933333,27.9761194" id="Fill-49" fill="#BBBDBF"></path>
                <path d="M20.2888889,29.9955224 L16.0844444,29.9462687 C10.7555556,29.8477612 5.42666667,29.7492537 0,29.6507463 L0,30.9313433 C5.18222222,30.8820896 10.6577778,30.8328358 16.0844444,30.7835821 L20.2888889,30.7343284 C21.7066667,30.7343284 23.0755556,30.6850746 24.4933333,30.6358209 C27.3777778,30.5373134 29.92,30.3402985 32.3644444,29.9955224 L32.3644444,29.5522388 C29.9688889,29.7985075 27.3777778,29.9462687 24.4933333,29.9955224 C23.0755556,29.9955224 21.6577778,29.9955224 20.2888889,29.9955224" id="Fill-50" fill="#BBBDBF"></path>
                <polygon id="Fill-51" fill="#BBBDBF" points="32.3155556 32.261194 0 31.4238806 0 32.7044776 32.3155556 32.7044776"></polygon>
                <path d="M29.4311111,10.8358209 C28.2088889,11.8208955 27.2311111,12.5597015 25.7644444,13.1507463 C24.4444444,13.6925373 23.0266667,13.8895522 21.4622222,14.1358209 C20.4355556,14.2835821 19.36,14.480597 18.3333333,14.5791045 C17.8933333,14.6283582 17.5022222,14.6283582 17.0622222,14.6776119 L0,15.9089552 L0,17.1895522 L17.0622222,15.5149254 L19.2622222,15.3179104 C20.0933333,15.219403 20.8266667,15.1701493 21.5111111,15.0223881 C23.1733333,14.7761194 24.5911111,14.3328358 25.8622222,13.741791 C27.1822222,13.1507463 28.5511111,12.1656716 29.7733333,11.1313433 C30.6044444,10.3925373 31.4355556,9.50597015 32.3155556,8.52089552 L32.3155556,8.07761194 C31.24,9.16119403 30.36,10.0970149 29.4311111,10.8358209" id="Fill-52" fill="#BBBDBF"></path>
                <path d="M46.0533333,0 C46.0533333,0 51.8711111,9.30895522 52.9466667,11.0328358 C54.0222222,12.7567164 55.2444444,14.0865672 59.5466667,15.0223881 C63.8488889,15.958209 65.7066667,16.3522388 65.7066667,16.3522388 L65.7066667,16.6970149 C65.7066667,16.6970149 62.9688889,16.1059701 59.4488889,15.3179104 C55.9288889,14.5298507 54.5111111,14.2835821 52.8977778,12.0179104 C51.5777778,10.1462687 46.0533333,2.21641791 46.0533333,2.21641791 L46.0533333,0 Z" id="Fill-53" fill="#BBBDBF"></path>
                <path d="M46.0533333,10.638806 C46.0533333,10.638806 51.3333333,16.2044776 52.8977778,17.8298507 C54.5111111,19.5537313 56.6133333,20.1447761 59.4977778,20.6865672 C62.2355556,21.1791045 65.7066667,21.7701493 65.7066667,21.7701493 L65.7066667,22.0656716 C65.7066667,22.0656716 62.4311111,21.5238806 59.4977778,21.0313433 C56.6133333,20.538806 54.56,20.2432836 52.8977778,18.7164179 C51.4311111,17.3373134 46.1022222,12.3134328 46.1022222,12.3134328 L46.0533333,10.638806 L46.0533333,10.638806 Z" id="Fill-54" fill="#BBBDBF"></path>
                <path d="M46.0533333,13.2 C46.0533333,13.2 51.0888889,17.9283582 52.8977778,19.5044776 C54.56,20.9820896 55.88,21.4253731 59.4977778,22.1149254 C63.1155556,22.7552239 65.7066667,23.1492537 65.7066667,23.1492537 L65.7066667,23.4940299 C65.7066667,23.4940299 62.4311111,22.9522388 59.4977778,22.4597015 C56.5644444,21.9671642 54.6577778,21.819403 52.8977778,20.341791 C50.8444444,18.6671642 46.0533333,14.7268657 46.0533333,14.7268657 L46.0533333,13.2 Z" id="Fill-55" fill="#BBBDBF"></path>
                <path d="M46.0533333,15.8597015 C46.0533333,15.8597015 51.8222222,20.4402985 52.8977778,21.2776119 C53.9733333,22.0656716 55.3911111,23.0014925 59.4977778,23.641791 C63.6044444,24.2328358 65.7066667,24.5283582 65.7066667,24.5283582 L65.7066667,24.8731343 C65.7066667,24.8731343 61.9911111,24.3313433 59.4977778,24.0358209 C57.0044444,23.7402985 55.0977778,23.5925373 52.8977778,22.1149254 C50.7466667,20.6865672 46.0533333,17.3373134 46.0533333,17.3373134 L46.0533333,15.8597015 Z" id="Fill-56" fill="#BBBDBF"></path>
                <path d="M46.0533333,18.4208955 C46.0533333,18.4208955 51.8222222,22.3119403 52.8977778,22.9029851 C53.9733333,23.4940299 55.2933333,24.5283582 59.4977778,25.0701493 C63.7022222,25.6119403 65.7066667,25.858209 65.7066667,25.858209 L65.7066667,26.2029851 C65.7066667,26.2029851 62.2355556,25.8089552 59.4977778,25.5134328 C56.76,25.2179104 54.9022222,24.8238806 52.8977778,23.6910448 C50.8933333,22.558209 46.0533333,19.7507463 46.0533333,19.7507463 L46.0533333,18.4208955 Z" id="Fill-57" fill="#BBBDBF"></path>
                <path d="M46.0533333,21.0313433 C46.0533333,21.0313433 51.1377778,23.838806 52.8977778,24.6761194 C54.8044444,25.661194 56.4666667,26.1044776 59.4977778,26.4985075 C62.48,26.8432836 65.7066667,27.1880597 65.7066667,27.1880597 L65.7066667,27.4835821 C65.7066667,27.4835821 62.7244444,27.138806 59.4977778,26.8432836 C56.32,26.5477612 55.1955556,26.4 52.8977778,25.3656716 C50.8444444,24.4298507 46.0533333,22.2134328 46.0533333,22.2134328 L46.0533333,21.0313433 Z" id="Fill-58" fill="#BBBDBF"></path>
                <path d="M46.0533333,23.641791 C46.0533333,23.641791 50.0622222,25.3656716 52.8977778,26.4985075 C55.6844444,27.6313433 57.7866667,27.7298507 59.4977778,27.8776119 C60.2311111,27.9761194 65.6577778,28.5179104 65.6577778,28.5179104 L65.6577778,28.8134328 C65.6577778,28.8134328 62.4311111,28.5671642 59.4488889,28.2716418 C56.5155556,28.0253731 55.2444444,27.8776119 52.8488889,27.0895522 C50.4533333,26.3014925 46.0044444,24.7253731 46.0044444,24.7253731 L46.0533333,23.641791 L46.0533333,23.641791 Z" id="Fill-59" fill="#BBBDBF"></path>
                <path d="M46.0533333,26.3014925 C46.0533333,26.3014925 50.1111111,27.5820896 52.8977778,28.3208955 C55.6844444,29.0597015 58.2266667,29.3552239 59.4977778,29.4537313 C60.7688889,29.5522388 65.7066667,29.9462687 65.7066667,29.9462687 L65.7066667,30.241791 C65.7066667,30.241791 62.92,30.0447761 59.4977778,29.7985075 C56.7111111,29.6014925 54.5111111,29.4044776 52.8977778,29.0104478 C51.0888889,28.6164179 46.0533333,27.3850746 46.0533333,27.3850746 L46.0533333,26.3014925 Z" id="Fill-60" fill="#BBBDBF"></path>
                <path d="M46.0533333,28.9119403 C46.0533333,28.9119403 49.3777778,29.5029851 52.8977778,30.0940299 C55.5377778,30.5373134 59.1066667,30.8328358 59.4977778,30.8328358 C59.8888889,30.8328358 65.7066667,31.2761194 65.7066667,31.2761194 L65.7066667,31.5716418 C65.7066667,31.5716418 61.9911111,31.3746269 59.4977778,31.2268657 C56.9066667,31.0791045 54.3644444,30.9313433 52.8977778,30.7835821 C49.6222222,30.438806 46.0533333,29.9955224 46.0533333,29.9955224 L46.0533333,28.9119403 Z" id="Fill-61" fill="#BBBDBF"></path>
                <path d="M46.0533333,31.6701493 C46.0533333,31.6701493 51.2844444,31.8671642 52.8977778,31.9164179 C54.5111111,31.9656716 65.7066667,32.4089552 65.7066667,32.4089552 L65.7066667,32.7044776 L46.0533333,32.7044776 L46.0533333,31.6701493 Z" id="Fill-62" fill="#BBBDBF"></path>
                <path d="M59.4977778,16.4507463 C54.7555556,15.4164179 53.68,13.6925373 52.8977778,12.6089552 C52.1155556,11.5253731 46.1022222,2.65970149 46.1022222,2.65970149 L46.1022222,4.67910448 C46.3466667,4.97462687 51.48,11.7716418 52.9466667,13.6432836 C54.56,15.761194 57.1022222,16.2537313 59.5466667,16.7462687 C61.9911111,17.2880597 65.7555556,18.0268657 65.7555556,18.0268657 L65.7555556,17.7313433 C65.7066667,17.7313433 60.72,16.7462687 59.4977778,16.4507463" id="Fill-63" fill="#BBBDBF"></path>
                <path d="M59.4977778,17.8791045 C55.5866667,17.0910448 54.0222222,15.8597015 52.8977778,14.3820896 C51.7733333,12.8552239 46.1022222,5.36865672 46.1022222,5.36865672 L46.1022222,7.24029851 C46.3466667,7.5358209 51.5288889,13.6925373 52.8977778,15.3179104 C54.5111111,17.1895522 56.76,17.6820896 59.4977778,18.1746269 C62.2355556,18.6671642 65.7066667,19.3567164 65.7066667,19.3567164 L65.7066667,19.061194 C65.7066667,19.061194 61.7466667,18.3223881 59.4977778,17.8791045" id="Fill-64" fill="#BBBDBF"></path>
                <path d="M59.4977778,19.3074627 C55.44,18.519403 54.6088889,17.8791045 52.8977778,15.958209 C51.8222222,14.7761194 46.2977778,8.22537313 46.0533333,7.92985075 L46.0533333,9.65373134 C46.0533333,9.65373134 51.1866667,15.1701493 52.8488889,16.8447761 C55,19.0119403 57.0533333,19.1597015 59.4488889,19.6029851 C61.8444444,20.0462687 65.6577778,20.7358209 65.6577778,20.7358209 L65.6577778,20.4402985 C65.7066667,20.4402985 61.1111111,19.6522388 59.4977778,19.3074627" id="Fill-65" fill="#BBBDBF"></path>
                <polygon id="Fill-66" fill="#034DA1" points="41.7511111 13.5940299 13.4444444 13.5940299 13.4444444 32.6552239 41.7511111 32.6552239"></polygon>
                <polygon id="Fill-67" fill="#FFF100" points="27.9155556 16.3029851 28.8933333 16.3029851 28.1111111 16.9432836 28.4044444 17.9283582 27.6222222 17.3373134 26.84 17.9283582 27.1333333 16.9432836 26.3511111 16.3029851 27.3288889 16.3029851 27.6222222 15.3179104"></polygon>
                <polygon id="Fill-68" fill="#FFF100" points="27.9155556 29.0104478 28.8933333 29.0104478 28.1111111 29.6014925 28.4044444 30.5373134 27.6222222 29.9462687 26.84 30.5373134 27.1333333 29.6014925 26.3511111 29.0104478 27.3288889 29.0104478 27.6222222 28.0746269"></polygon>
                <polygon id="Fill-69" fill="#FFF100" points="31.0444444 28.1731343 32.0222222 28.1731343 31.24 28.7641791 31.5333333 29.7 30.7511111 29.1089552 29.9688889 29.7 30.2622222 28.7641791 29.48 28.1731343 30.4577778 28.1731343 30.7511111 27.2373134"></polygon>
                <polygon id="Fill-70" fill="#FFF100" points="31.0444444 17.1402985 32.0222222 17.1402985 31.24 17.7313433 31.5333333 18.6671642 30.7511111 18.0761194 29.9688889 18.7164179 30.3111111 17.7313433 29.5288889 17.1402985 30.5066667 17.1402985 30.8 16.2044776"></polygon>
                <polygon id="Fill-71" fill="#FFF100" points="33.3911111 19.5044776 34.3688889 19.5044776 33.5866667 20.0955224 33.88 21.0313433 33.0977778 20.4402985 32.3155556 21.0313433 32.6088889 20.0955224 31.8266667 19.5044776 32.8044444 19.5044776 33.0977778 18.5686567"></polygon>
                <polygon id="Fill-72" fill="#FFF100" points="33.3911111 25.9074627 34.3688889 25.9074627 33.5866667 26.4985075 33.88 27.4343284 33.0977778 26.8432836 32.3155556 27.4343284 32.6088889 26.4985075 31.8266667 25.9074627 32.8044444 25.9074627 33.0977778 24.9716418"></polygon>
                <polygon id="Fill-73" fill="#FFF100" points="34.2711111 22.6567164 35.2488889 22.6567164 34.4666667 23.2477612 34.76 24.1835821 33.9777778 23.5925373 33.1955556 24.1835821 33.4888889 23.2477612 32.6577778 22.6567164 33.6355556 22.6567164 33.9288889 21.7208955"></polygon>
                <polygon id="Fill-74" fill="#FFF100" points="24.6888889 17.1402985 25.6666667 17.1402985 24.8844444 17.7313433 25.1777778 18.6671642 24.4444444 18.1253731 23.6133333 18.7164179 23.9066667 17.780597 23.1244444 17.1895522 24.1022222 17.1895522 24.4444444 16.2537313"></polygon>
                <polygon id="Fill-75" fill="#FFF100" points="22.44 19.5044776 23.4177778 19.5044776 22.6355556 20.0955224 22.9288889 21.0313433 22.1466667 20.4402985 21.3644444 21.0313433 21.6577778 20.0955224 20.8755556 19.5044776 21.8533333 19.5044776 22.1466667 18.5686567"></polygon>
                <polygon id="Fill-76" fill="#FFF100" points="21.6088889 22.6567164 22.5866667 22.6567164 21.8044444 23.2477612 22.0977778 24.1835821 21.3155556 23.5925373 20.5333333 24.1835821 20.8266667 23.2477612 20.0444444 22.6567164 21.0222222 22.6567164 21.3155556 21.7208955"></polygon>
                <polygon id="Fill-77" fill="#FFF100" points="22.44 25.9074627 23.4177778 25.9074627 22.6355556 26.4985075 22.9288889 27.4343284 22.1466667 26.8432836 21.3644444 27.4343284 21.6577778 26.4985075 20.8755556 25.9074627 21.8533333 25.9074627 22.1466667 24.9716418"></polygon>
                <polygon id="Fill-78" fill="#FFF100" points="24.7377778 28.2223881 25.7155556 28.2223881 24.9333333 28.8134328 25.2266667 29.7492537 24.4444444 29.158209 23.6622222 29.7492537 23.9555556 28.8134328 23.1733333 28.2223881 24.1511111 28.2223881 24.4444444 27.2865672"></polygon>
            </g>
            <g id="Group" transform="translate(71.000000, 15.240310)" fill="#626366">
                <path d="M0.195,0.55 C0.195,0.4 0.24375,0.35 0.39,0.35 L3.9975,0.35 C4.14375,0.35 4.1925,0.4 4.1925,0.55 L4.1925,1.15 C4.1925,1.25 4.14375,1.35 3.9975,1.35 L1.31625,1.35 L1.31625,3.1 L3.705,3.1 C3.85125,3.1 3.9,3.15 3.9,3.3 L3.9,3.9 C3.9,4 3.85125,4.1 3.705,4.1 L1.31625,4.1 L1.31625,6.1 L4.04625,6.1 C4.14375,6.1 4.24125,6.15 4.24125,6.3 L4.24125,6.9 C4.24125,7 4.1925,7.1 4.04625,7.1 L0.39,7.1 C0.24375,7.1 0.195,7.05 0.195,6.9 L0.195,0.55 Z" id="Path"></path>
                <path d="M9.165,7.05 L8.4825,7.05 C8.43375,7.05 8.385,7.05 8.33625,7 C8.2875,6.95 8.2875,6.9 8.2875,6.85 L8.2875,6.5 L8.2875,6.5 C8.19,6.55 8.0925,6.65 7.94625,6.7 C7.8,6.75 7.7025,6.85 7.55625,6.9 C7.41,6.95 7.26375,7 7.1175,7.05 C6.97125,7.1 6.825,7.1 6.67875,7.1 C6.3375,7.1 6.09375,7.05 5.89875,6.95 C5.70375,6.85 5.5575,6.75 5.46,6.55 C5.3625,6.4 5.31375,6.2 5.265,5.95 C5.21625,5.7 5.21625,5.5 5.21625,5.2 L5.21625,2.25 C5.21625,2.1 5.265,2.05 5.41125,2.05 L6.1425,2.05 C6.24,2.05 6.3375,2.1 6.3375,2.25 L6.3375,5.05 C6.3375,5.2 6.3375,5.35 6.38625,5.45 C6.38625,5.55 6.435,5.65 6.48375,5.75 C6.5325,5.85 6.63,5.9 6.67875,5.95 C6.7275,6 6.87375,6 7.02,6 C7.1175,6 7.215,6 7.36125,5.95 C7.5075,5.9 7.605,5.85 7.75125,5.8 C7.8975,5.75 7.995,5.7 8.0925,5.65 C8.19,5.6 8.2875,5.55 8.33625,5.5 L8.33625,2.15 C8.33625,2.1 8.33625,2.05 8.385,2 C8.43375,1.95 8.4825,1.95 8.53125,1.95 L9.21375,1.95 C9.36,1.95 9.40875,2 9.40875,2.15 L9.40875,6.7 C9.36,6.95 9.31125,7.05 9.165,7.05 Z" id="Path"></path>
                <path d="M11.65125,6.85 C11.65125,7 11.6025,7.05 11.45625,7.05 L10.725,7.05 C10.57875,7.05 10.53,7 10.53,6.85 L10.53,2.3 C10.53,2.15 10.57875,2.1 10.725,2.1 L11.4075,2.1 C11.55375,2.1 11.6025,2.15 11.6025,2.3 L11.6025,2.75 L11.6025,2.75 C11.65125,2.7 11.74875,2.6 11.895,2.55 C11.9925,2.45 12.13875,2.4 12.285,2.35 C12.43125,2.3 12.5775,2.25 12.675,2.15 C12.82125,2.1 12.91875,2.05 13.065,2.05 C13.11375,2.05 13.1625,2.05 13.21125,2.05 C13.26,2.05 13.26,2.1 13.30875,2.2 L13.3575,2.85 C13.3575,2.9 13.3575,3 13.3575,3 C13.3575,3.05 13.30875,3.05 13.1625,3.1 C13.01625,3.15 12.87,3.15 12.72375,3.2 C12.5775,3.25 12.43125,3.3 12.285,3.3 C12.13875,3.35 11.9925,3.4 11.895,3.45 C11.74875,3.5 11.65125,3.55 11.6025,3.55 L11.6025,6.85 L11.65125,6.85 Z" id="Path"></path>
                <path d="M18.135,4.5 C18.135,4.8 18.135,5.1 18.08625,5.4 C18.0375,5.7 17.94,6 17.79375,6.25 C17.6475,6.5 17.4525,6.7 17.16,6.9 C16.8675,7.05 16.4775,7.15 15.99,7.15 C15.5025,7.15 15.1125,7.05 14.82,6.9 C14.5275,6.75 14.3325,6.55 14.18625,6.25 C14.04,6 13.9425,5.7 13.9425,5.4 C13.89375,5.1 13.89375,4.8 13.89375,4.5 C13.89375,4.25 13.89375,4 13.9425,3.7 C13.99125,3.4 14.08875,3.15 14.235,2.9 C14.38125,2.65 14.57625,2.45 14.86875,2.25 C15.16125,2.1 15.5025,2 15.99,2 C16.4775,2 16.8675,2.05 17.11125,2.2 C17.40375,2.35 17.59875,2.55 17.745,2.8 C17.89125,3.05 17.98875,3.3 18.0375,3.6 C18.08625,3.9 18.135,4.2 18.135,4.5 Z M17.01375,4.55 C17.01375,4.3 17.01375,4.05 16.965,3.85 C16.91625,3.65 16.8675,3.5 16.81875,3.35 C16.72125,3.2 16.62375,3.1 16.4775,3.05 C16.33125,3 16.185,2.95 15.94125,2.95 C15.74625,2.95 15.55125,3 15.45375,3.05 C15.35625,3.1 15.21,3.2 15.16125,3.35 C15.06375,3.5 15.015,3.65 15.015,3.85 C14.96625,4.05 14.96625,4.3 14.96625,4.55 C14.96625,4.8 14.96625,5.05 15.015,5.25 C15.06375,5.45 15.1125,5.6 15.16125,5.75 C15.21,5.9 15.35625,6 15.45375,6.05 C15.55125,6.1 15.74625,6.15 15.94125,6.15 C16.185,6.15 16.33125,6.1 16.4775,6.05 C16.62375,6 16.72125,5.9 16.81875,5.75 C16.91625,5.6 16.965,5.45 16.965,5.25 C17.01375,5.05 17.01375,4.85 17.01375,4.55 Z" id="Shape"></path>
                <path d="M23.3025,4.55 C23.3025,4.95 23.25375,5.3 23.205,5.65 C23.15625,5.95 23.05875,6.25 22.9125,6.45 C22.76625,6.65 22.57125,6.85 22.3275,6.95 C22.08375,7.05 21.7425,7.1 21.3525,7.1 C21.20625,7.1 21.01125,7.1 20.7675,7.05 C20.5725,7 20.32875,6.95 20.085,6.9 L20.085,6.9 L20.085,8.65 C20.085,8.7 20.085,8.75 20.03625,8.8 C19.9875,8.85 19.93875,8.85 19.89,8.85 L19.2075,8.85 C19.11,8.85 19.06125,8.85 19.06125,8.8 C19.06125,8.75 19.0125,8.7 19.0125,8.65 L19.0125,2.3 C19.0125,2.15 19.06125,2.1 19.2075,2.1 L19.89,2.1 C19.93875,2.1 19.9875,2.1 20.03625,2.15 C20.085,2.2 20.085,2.25 20.085,2.3 L20.085,2.6 L20.13375,2.6 C20.23125,2.55 20.32875,2.5 20.42625,2.4 C20.52375,2.35 20.67,2.25 20.81625,2.2 C20.9625,2.15 21.10875,2.1 21.255,2.05 C21.40125,2 21.5475,2 21.69375,2 C22.035,2 22.27875,2.05 22.47375,2.2 C22.66875,2.3 22.86375,2.5 22.96125,2.7 C23.05875,2.9 23.15625,3.2 23.205,3.5 C23.3025,3.8 23.3025,4.15 23.3025,4.55 Z M22.18125,4.55 C22.18125,4.25 22.18125,3.95 22.1325,3.8 C22.08375,3.65 22.035,3.45 21.98625,3.35 C21.9375,3.25 21.84,3.15 21.7425,3.15 C21.645,3.1 21.5475,3.1 21.40125,3.1 C21.30375,3.1 21.20625,3.1 21.06,3.15 C20.91375,3.2 20.81625,3.2 20.67,3.25 C20.5725,3.3 20.42625,3.35 20.32875,3.4 C20.23125,3.45 20.13375,3.5 20.03625,3.55 L20.03625,6.05 C20.28,6.1 20.475,6.15 20.62125,6.2 C20.7675,6.25 20.9625,6.25 21.1575,6.25 C21.3525,6.25 21.49875,6.2 21.59625,6.15 C21.69375,6.1 21.79125,6 21.88875,5.9 C21.98625,5.75 22.035,5.6 22.035,5.4 C22.18125,5.1 22.18125,4.85 22.18125,4.55 Z" id="Shape"></path>
                <path d="M25.20375,4.85 C25.20375,5.1 25.2525,5.3 25.30125,5.5 C25.35,5.65 25.4475,5.8 25.545,5.9 C25.6425,6 25.74,6.05 25.88625,6.1 C26.0325,6.15 26.17875,6.15 26.4225,6.15 C26.6175,6.15 26.8125,6.15 27.05625,6.1 C27.3,6.05 27.495,6.05 27.69,6.05 C27.7875,6.05 27.83625,6.05 27.885,6.05 C27.93375,6.05 27.93375,6.1 27.9825,6.2 L28.03125,6.55 C28.03125,6.6 28.03125,6.7 28.03125,6.75 C28.03125,6.8 27.9825,6.85 27.885,6.9 C27.7875,6.95 27.69,7 27.54375,7 C27.3975,7 27.3,7.05 27.15375,7.1 C27.0075,7.15 26.86125,7.15 26.715,7.15 C26.56875,7.15 26.4225,7.15 26.325,7.15 C25.8375,7.15 25.49625,7.1 25.20375,6.95 C24.91125,6.8 24.71625,6.6 24.57,6.4 C24.42375,6.15 24.32625,5.9 24.2775,5.6 C24.22875,5.3 24.18,5 24.18,4.65 C24.18,4.4 24.18,4.15 24.22875,3.85 C24.2775,3.55 24.375,3.25 24.52125,3 C24.6675,2.75 24.8625,2.5 25.155,2.35 C25.4475,2.15 25.78875,2.1 26.27625,2.1 C26.715,2.1 27.05625,2.15 27.34875,2.3 C27.64125,2.45 27.83625,2.6 27.9825,2.8 C28.12875,3 28.22625,3.25 28.275,3.5 C28.32375,3.75 28.3725,4.05 28.3725,4.3 C28.3725,4.5 28.3725,4.65 28.275,4.75 C28.1775,4.85 28.08,4.9 27.885,4.9 L25.20375,4.9 L25.20375,4.85 Z M26.17875,2.9 C25.98375,2.9 25.8375,2.95 25.74,3 C25.6425,3.05 25.545,3.15 25.4475,3.25 C25.35,3.35 25.30125,3.5 25.30125,3.65 C25.2525,3.8 25.2525,3.95 25.2525,4.15 L27.2025,4.15 C27.2025,4 27.2025,3.85 27.15375,3.7 C27.105,3.55 27.05625,3.45 27.0075,3.3 C26.95875,3.15 26.86125,3.1 26.715,3.05 C26.52,2.95 26.37375,2.9 26.17875,2.9 Z" id="Shape"></path>
                <path d="M32.175,6.45 C31.93125,6.65 31.63875,6.8 31.34625,6.9 C31.05375,7 30.7125,7.1 30.37125,7.1 C30.1275,7.1 29.88375,7.05 29.7375,7 C29.5425,6.95 29.445,6.85 29.3475,6.7 C29.25,6.6 29.1525,6.45 29.1525,6.25 C29.10375,6.1 29.10375,5.9 29.10375,5.65 C29.10375,5.05 29.25,4.65 29.5425,4.35 C29.835,4.1 30.3225,3.95 30.9075,3.95 L32.175,3.95 L32.175,3.7 C32.175,3.55 32.175,3.45 32.12625,3.3 C32.0775,3.2 32.02875,3.1 31.98,3.05 C31.8825,3 31.785,2.95 31.6875,2.9 C31.54125,2.85 31.395,2.85 31.2,2.85 C31.1025,2.85 31.005,2.85 30.9075,2.85 C30.81,2.85 30.66375,2.85 30.56625,2.85 C30.46875,2.85 30.3225,2.85 30.225,2.9 C30.1275,2.9 29.98125,2.9 29.88375,2.95 C29.78625,2.95 29.7375,2.95 29.68875,2.95 C29.64,2.95 29.64,2.9 29.59125,2.8 L29.49375,2.45 C29.49375,2.4 29.49375,2.35 29.49375,2.3 C29.5425,2.25 29.59125,2.2 29.68875,2.15 C29.78625,2.1 29.9325,2.1 30.07875,2.05 C30.225,2 30.37125,2 30.5175,2 C30.66375,2 30.81,1.95 30.95625,1.95 C31.1025,1.95 31.24875,1.95 31.34625,1.95 C31.785,1.95 32.12625,2 32.37,2.1 C32.61375,2.2 32.80875,2.3 32.955,2.45 C33.10125,2.6 33.15,2.8 33.19875,3.05 C33.2475,3.3 33.2475,3.55 33.2475,3.8 L33.2475,5.75 C33.2475,5.85 33.2475,5.95 33.2475,6 C33.2475,6.05 33.29625,6.1 33.29625,6.15 C33.29625,6.2 33.345,6.2 33.39375,6.2 C33.4425,6.2 33.49125,6.2 33.58875,6.25 C33.6375,6.25 33.68625,6.25 33.735,6.3 C33.78375,6.3 33.78375,6.35 33.78375,6.4 L33.78375,6.8 C33.78375,6.9 33.68625,7 33.54,7 C33.4425,7 33.39375,7 33.29625,7.05 C33.19875,7.05 33.15,7.05 33.0525,7.05 C32.80875,7.05 32.6625,7 32.51625,6.9 C32.32125,6.85 32.22375,6.7 32.175,6.45 L32.175,6.45 Z M32.12625,4.8 L30.95625,4.8 C30.7125,4.8 30.5175,4.85 30.37125,5 C30.225,5.1 30.17625,5.35 30.17625,5.65 C30.17625,5.85 30.225,6 30.3225,6.1 C30.42,6.2 30.56625,6.25 30.81,6.25 C30.9075,6.25 31.005,6.25 31.15125,6.2 C31.2975,6.15 31.395,6.15 31.54125,6.1 C31.6875,6.05 31.785,6 31.8825,5.95 C31.98,5.9 32.12625,5.85 32.175,5.8 L32.175,4.8 L32.12625,4.8 Z" id="Shape"></path>
                <path d="M38.56125,7 C38.5125,7.05 38.46375,7.05 38.415,7.05 L37.68375,7.05 C37.5375,7.05 37.48875,7 37.48875,6.85 L37.48875,4.05 C37.48875,3.75 37.44,3.5 37.3425,3.35 C37.245,3.15 37.05,3.1 36.7575,3.1 C36.66,3.1 36.5625,3.1 36.41625,3.15 C36.27,3.2 36.1725,3.25 36.02625,3.3 C35.88,3.35 35.7825,3.4 35.685,3.45 C35.5875,3.5 35.49,3.55 35.44125,3.6 L35.44125,6.95 C35.44125,7.1 35.3925,7.15 35.24625,7.15 L34.56375,7.15 C34.4175,7.15 34.36875,7.1 34.36875,6.95 L34.36875,2.4 C34.36875,2.25 34.4175,2.2 34.56375,2.2 L35.24625,2.2 C35.3925,2.2 35.44125,2.25 35.44125,2.4 L35.44125,2.7 C35.44125,2.7 35.44125,2.7 35.44125,2.7 C35.44125,2.7 35.44125,2.7 35.44125,2.7 C35.53875,2.65 35.63625,2.55 35.7825,2.5 C35.92875,2.45 36.02625,2.35 36.1725,2.3 C36.31875,2.25 36.465,2.2 36.61125,2.15 C36.7575,2.1 36.90375,2.1 37.05,2.1 C37.39125,2.1 37.635,2.15 37.83,2.25 C38.025,2.35 38.17125,2.5 38.26875,2.65 C38.36625,2.8 38.415,3.05 38.46375,3.25 C38.5125,3.5 38.5125,3.7 38.5125,4 L38.5125,6.9 C38.56125,6.9 38.56125,6.95 38.56125,7 Z" id="Path"></path>
            </g>
            <g id="Group" transform="translate(70.000000, 26.240310)" fill="#626366">
                <path d="M0.0990291262,3.64 C0.0990291262,3.22 0.148543689,2.84666667 0.198058252,2.47333333 C0.247572816,2.1 0.396116505,1.72666667 0.594174757,1.44666667 C0.79223301,1.16666667 1.03980583,0.886666667 1.38640777,0.7 C1.73300971,0.513333333 2.17864078,0.42 2.77281553,0.42 C2.87184466,0.42 3.02038835,0.42 3.16893204,0.42 C3.31747573,0.42 3.46601942,0.466666667 3.66407767,0.466666667 C3.81262136,0.466666667 4.01067961,0.513333333 4.1592233,0.56 C4.30776699,0.606666667 4.45631068,0.653333333 4.60485437,0.7 C4.7038835,0.746666667 4.75339806,0.746666667 4.75339806,0.793333333 C4.75339806,0.84 4.80291262,0.886666667 4.80291262,0.98 L4.7038835,1.35333333 C4.7038835,1.4 4.65436893,1.44666667 4.65436893,1.49333333 C4.60485437,1.54 4.55533981,1.54 4.45631068,1.49333333 C4.20873786,1.44666667 3.96116505,1.44666667 3.66407767,1.4 C3.36699029,1.35333333 3.11941748,1.35333333 2.87184466,1.35333333 C2.52524272,1.35333333 2.2776699,1.4 2.07961165,1.54 C1.8815534,1.68 1.73300971,1.82 1.58446602,2.00666667 C1.48543689,2.19333333 1.38640777,2.47333333 1.38640777,2.70666667 C1.38640777,2.94 1.3368932,3.26666667 1.3368932,3.59333333 C1.3368932,3.92 1.3368932,4.2 1.38640777,4.43333333 C1.43592233,4.71333333 1.48543689,4.94666667 1.63398058,5.13333333 C1.73300971,5.32 1.8815534,5.50666667 2.12912621,5.6 C2.32718447,5.69333333 2.57475728,5.78666667 2.92135922,5.78666667 C3.2184466,5.78666667 3.46601942,5.78666667 3.71359223,5.74 C3.96116505,5.69333333 4.20873786,5.69333333 4.50582524,5.64666667 C4.60485437,5.64666667 4.65436893,5.64666667 4.7038835,5.64666667 C4.75339806,5.69333333 4.75339806,5.69333333 4.80291262,5.78666667 L4.90194175,6.16 C4.95145631,6.3 4.90194175,6.39333333 4.75339806,6.44 C4.65436893,6.48666667 4.50582524,6.53333333 4.30776699,6.58 C4.1592233,6.62666667 3.96116505,6.62666667 3.81262136,6.67333333 C3.66407767,6.72 3.46601942,6.72 3.31747573,6.72 C3.16893204,6.72 3.02038835,6.72 2.87184466,6.72 C2.32718447,6.72 1.8815534,6.62666667 1.53495146,6.44 C1.18834951,6.25333333 0.891262136,6.02 0.742718447,5.74 C0.544660194,5.46 0.396116505,5.13333333 0.346601942,4.76 C0.148543689,4.43333333 0.0990291262,4.06 0.0990291262,3.64 Z" id="Path"></path>
                <path d="M9.85339806,4.34 C9.85339806,4.62 9.85339806,4.9 9.8038835,5.18 C9.75436893,5.46 9.65533981,5.74 9.50679612,5.97333333 C9.35825243,6.20666667 9.16019417,6.39333333 8.8631068,6.58 C8.56601942,6.72 8.16990291,6.81333333 7.67475728,6.81333333 C7.17961165,6.81333333 6.78349515,6.72 6.48640777,6.58 C6.18932039,6.44 5.99126214,6.25333333 5.84271845,5.97333333 C5.69417476,5.74 5.59514563,5.46 5.59514563,5.18 C5.54563107,4.9 5.54563107,4.62 5.54563107,4.34 C5.54563107,4.10666667 5.54563107,3.87333333 5.59514563,3.59333333 C5.64466019,3.31333333 5.74368932,3.08 5.89223301,2.84666667 C6.0407767,2.61333333 6.23883495,2.42666667 6.53592233,2.24 C6.83300971,2.1 7.17961165,2.00666667 7.67475728,2.00666667 C8.16990291,2.00666667 8.56601942,2.05333333 8.81359223,2.19333333 C9.11067961,2.33333333 9.30873786,2.52 9.45728155,2.75333333 C9.60582524,2.98666667 9.70485437,3.22 9.75436893,3.5 C9.8038835,3.78 9.85339806,4.06 9.85339806,4.34 Z M8.71456311,4.38666667 C8.71456311,4.15333333 8.71456311,3.92 8.66504854,3.73333333 C8.61553398,3.54666667 8.56601942,3.40666667 8.51650485,3.26666667 C8.41747573,3.12666667 8.3184466,3.03333333 8.16990291,2.98666667 C8.02135922,2.94 7.87281553,2.89333333 7.62524272,2.89333333 C7.42718447,2.89333333 7.22912621,2.94 7.13009709,2.98666667 C7.03106796,3.03333333 6.88252427,3.12666667 6.83300971,3.26666667 C6.73398058,3.40666667 6.68446602,3.54666667 6.68446602,3.73333333 C6.63495146,3.92 6.63495146,4.15333333 6.63495146,4.38666667 C6.63495146,4.62 6.63495146,4.85333333 6.68446602,5.04 C6.73398058,5.22666667 6.78349515,5.36666667 6.83300971,5.50666667 C6.88252427,5.64666667 7.03106796,5.74 7.13009709,5.78666667 C7.22912621,5.83333333 7.42718447,5.88 7.62524272,5.88 C7.87281553,5.88 8.02135922,5.83333333 8.16990291,5.78666667 C8.3184466,5.74 8.41747573,5.64666667 8.51650485,5.50666667 C8.61553398,5.36666667 8.66504854,5.22666667 8.66504854,5.04 C8.66504854,4.85333333 8.71456311,4.66666667 8.71456311,4.38666667 Z" id="Shape"></path>
                <path d="M17.9242718,6.67333333 C17.9242718,6.72 17.8747573,6.72 17.7757282,6.72 L17.0825243,6.72 C16.9339806,6.72 16.884466,6.67333333 16.884466,6.53333333 L16.884466,3.87333333 C16.884466,3.54666667 16.8349515,3.26666667 16.7359223,3.17333333 C16.6368932,3.03333333 16.438835,2.98666667 16.1912621,2.98666667 C16.092233,2.98666667 15.9932039,2.98666667 15.8941748,3.03333333 C15.7951456,3.08 15.6466019,3.08 15.5475728,3.12666667 C15.4485437,3.17333333 15.3,3.22 15.2009709,3.26666667 C15.1019417,3.31333333 15.0029126,3.36 14.9038835,3.40666667 C14.9038835,3.45333333 14.9038835,3.5 14.9038835,3.59333333 C14.9038835,3.68666667 14.9038835,3.78 14.9038835,3.87333333 L14.9038835,6.53333333 C14.9038835,6.58 14.9038835,6.62666667 14.8543689,6.67333333 C14.8048544,6.72 14.7553398,6.72 14.7058252,6.72 L13.9631068,6.72 C13.8640777,6.72 13.8145631,6.67333333 13.8145631,6.53333333 L13.8145631,3.82666667 C13.8145631,3.54666667 13.7650485,3.31333333 13.6660194,3.17333333 C13.5669903,3.03333333 13.4184466,2.98666667 13.1708738,2.98666667 C13.0718447,2.98666667 12.9728155,2.98666667 12.8737864,3.03333333 C12.7747573,3.08 12.6757282,3.08 12.5271845,3.12666667 C12.4281553,3.17333333 12.2796117,3.22 12.1805825,3.26666667 C12.0815534,3.31333333 11.9825243,3.36 11.8834951,3.40666667 L11.8834951,6.53333333 C11.8834951,6.67333333 11.8339806,6.72 11.6854369,6.72 L10.992233,6.72 C10.8932039,6.72 10.7941748,6.67333333 10.7941748,6.53333333 L10.7941748,2.28666667 C10.7941748,2.14666667 10.8436893,2.1 10.992233,2.1 L11.6854369,2.1 C11.8339806,2.1 11.8834951,2.14666667 11.8834951,2.28666667 L11.8834951,2.56666667 L11.8834951,2.56666667 C11.9825243,2.52 12.0815534,2.42666667 12.1805825,2.38 C12.2796117,2.33333333 12.4281553,2.24 12.5271845,2.19333333 C12.6262136,2.14666667 12.7747573,2.1 12.923301,2.05333333 C13.0718447,2.00666667 13.1708738,2.00666667 13.3194175,2.00666667 C13.6165049,2.00666667 13.8640777,2.05333333 14.1116505,2.14666667 C14.3592233,2.24 14.5572816,2.42666667 14.7058252,2.66 C14.9533981,2.47333333 15.2504854,2.33333333 15.5475728,2.19333333 C15.8446602,2.05333333 16.1417476,2.00666667 16.4883495,2.00666667 C16.8349515,2.00666667 17.0825243,2.05333333 17.2805825,2.14666667 C17.4786408,2.24 17.6271845,2.38 17.7262136,2.52 C17.8252427,2.66 17.8747573,2.84666667 17.9242718,3.08 C17.9737864,3.31333333 17.9737864,3.5 17.9737864,3.73333333 L17.9737864,6.53333333 C17.9242718,6.58 17.9242718,6.62666667 17.9242718,6.67333333 Z" id="Path"></path>
                <path d="M26.0941748,6.67333333 C26.0941748,6.72 26.0446602,6.72 25.9456311,6.72 L25.2524272,6.72 C25.1038835,6.72 25.0543689,6.67333333 25.0543689,6.53333333 L25.0543689,3.87333333 C25.0543689,3.54666667 25.0048544,3.26666667 24.9058252,3.17333333 C24.8067961,3.03333333 24.6087379,2.98666667 24.361165,2.98666667 C24.2621359,2.98666667 24.1631068,2.98666667 24.0640777,3.03333333 C23.9650485,3.08 23.8165049,3.08 23.7174757,3.12666667 C23.6184466,3.17333333 23.4699029,3.22 23.3708738,3.26666667 C23.2718447,3.31333333 23.1728155,3.36 23.0737864,3.40666667 C23.0737864,3.45333333 23.0737864,3.5 23.0737864,3.59333333 C23.0737864,3.68666667 23.0737864,3.78 23.0737864,3.87333333 L23.0737864,6.53333333 C23.0737864,6.58 23.0737864,6.62666667 23.0242718,6.67333333 C22.9747573,6.72 22.9252427,6.72 22.8757282,6.72 L22.1330097,6.72 C22.0339806,6.72 21.984466,6.67333333 21.984466,6.53333333 L21.984466,3.82666667 C21.984466,3.54666667 21.9349515,3.31333333 21.8359223,3.17333333 C21.7368932,3.03333333 21.5883495,2.98666667 21.3407767,2.98666667 C21.2417476,2.98666667 21.1427184,2.98666667 21.0436893,3.03333333 C20.9446602,3.08 20.8456311,3.08 20.6970874,3.12666667 C20.5485437,3.17333333 20.4495146,3.22 20.3504854,3.26666667 C20.2514563,3.31333333 20.1524272,3.36 20.0533981,3.40666667 L20.0533981,6.53333333 C20.0533981,6.67333333 20.0038835,6.72 19.8553398,6.72 L19.1621359,6.72 C19.0631068,6.72 18.9640777,6.67333333 18.9640777,6.53333333 L18.9640777,2.28666667 C18.9640777,2.14666667 19.0135922,2.1 19.1621359,2.1 L19.8553398,2.1 C20.0038835,2.1 20.0533981,2.14666667 20.0533981,2.28666667 L20.0533981,2.56666667 L20.0533981,2.56666667 C20.1524272,2.52 20.2514563,2.42666667 20.3504854,2.38 C20.4495146,2.33333333 20.5980583,2.24 20.6970874,2.19333333 C20.8456311,2.14666667 20.9446602,2.1 21.0932039,2.05333333 C21.2417476,2.00666667 21.3407767,2.00666667 21.4893204,2.00666667 C21.7864078,2.00666667 22.0339806,2.05333333 22.2815534,2.14666667 C22.5291262,2.24 22.7271845,2.42666667 22.8757282,2.66 C23.123301,2.47333333 23.4203883,2.33333333 23.7174757,2.19333333 C24.0145631,2.05333333 24.3116505,2.00666667 24.6582524,2.00666667 C25.0048544,2.00666667 25.2524272,2.05333333 25.4504854,2.14666667 C25.6485437,2.24 25.7970874,2.38 25.8961165,2.52 C25.9951456,2.66 26.0446602,2.84666667 26.0941748,3.08 C26.1436893,3.31333333 26.1436893,3.5 26.1436893,3.73333333 L26.1436893,6.53333333 C26.1436893,6.58 26.0941748,6.62666667 26.0941748,6.67333333 Z" id="Path"></path>
                <path d="M28.4708738,0.886666667 C28.4708738,0.98 28.4708738,1.02666667 28.4708738,1.12 C28.4708738,1.16666667 28.4213592,1.26 28.3718447,1.30666667 C28.3223301,1.35333333 28.2728155,1.4 28.1737864,1.44666667 C28.0747573,1.49333333 27.9757282,1.49333333 27.876699,1.49333333 C27.7281553,1.49333333 27.6291262,1.49333333 27.5796117,1.44666667 C27.4805825,1.4 27.431068,1.35333333 27.3815534,1.30666667 C27.3320388,1.26 27.3320388,1.21333333 27.2825243,1.12 C27.2825243,1.07333333 27.2825243,0.98 27.2825243,0.933333333 C27.2825243,0.793333333 27.3320388,0.653333333 27.3815534,0.56 C27.4805825,0.466666667 27.6291262,0.42 27.876699,0.42 C28.1242718,0.42 28.2728155,0.466666667 28.3718447,0.56 C28.4213592,0.606666667 28.4708738,0.746666667 28.4708738,0.886666667 Z M28.4213592,6.53333333 C28.4213592,6.58 28.4213592,6.62666667 28.3718447,6.67333333 C28.3718447,6.72 28.3223301,6.72 28.223301,6.72 L27.5300971,6.72 C27.3815534,6.72 27.3320388,6.67333333 27.3320388,6.53333333 L27.3320388,2.28666667 C27.3320388,2.14666667 27.3815534,2.1 27.5300971,2.1 L28.223301,2.1 C28.2728155,2.1 28.3223301,2.1 28.3718447,2.14666667 C28.3718447,2.19333333 28.4213592,2.24 28.4213592,2.28666667 L28.4213592,6.53333333 Z" id="Shape"></path>
                <path d="M33.2737864,5.32 C33.2737864,5.6 33.2242718,5.83333333 33.1252427,6.02 C33.0262136,6.20666667 32.8776699,6.34666667 32.6796117,6.48666667 C32.4815534,6.58 32.2834951,6.67333333 32.0359223,6.72 C31.7883495,6.76666667 31.5407767,6.81333333 31.2932039,6.81333333 C31.0456311,6.81333333 30.7485437,6.81333333 30.5009709,6.76666667 C30.2038835,6.72 29.9563107,6.67333333 29.7582524,6.62666667 C29.6592233,6.58 29.6097087,6.53333333 29.5601942,6.48666667 C29.5106796,6.44 29.5106796,6.39333333 29.5601942,6.3 L29.6097087,5.97333333 C29.6097087,5.88 29.6592233,5.83333333 29.7087379,5.83333333 C29.7582524,5.83333333 29.807767,5.83333333 29.9067961,5.83333333 C30.0058252,5.83333333 30.1543689,5.88 30.2533981,5.88 C30.4019417,5.88 30.5009709,5.88 30.6495146,5.92666667 C30.7980583,5.92666667 30.8970874,5.92666667 30.9961165,5.97333333 C31.0951456,5.97333333 31.1941748,5.97333333 31.2932039,5.97333333 C31.5902913,5.97333333 31.8378641,5.92666667 31.9864078,5.83333333 C32.1349515,5.74 32.184466,5.6 32.184466,5.41333333 C32.184466,5.32 32.184466,5.22666667 32.1349515,5.13333333 C32.0854369,5.04 32.0854369,4.99333333 31.9864078,4.94666667 C31.8873786,4.9 31.8378641,4.85333333 31.738835,4.85333333 C31.6398058,4.80666667 31.4912621,4.80666667 31.3427184,4.76 C31.0951456,4.71333333 30.8475728,4.66666667 30.6495146,4.62 C30.4514563,4.57333333 30.2533981,4.48 30.0553398,4.38666667 C29.9067961,4.29333333 29.7582524,4.15333333 29.6592233,4.01333333 C29.5601942,3.87333333 29.5106796,3.64 29.5106796,3.40666667 C29.5106796,2.94 29.6592233,2.61333333 30.0058252,2.33333333 C30.3524272,2.1 30.7980583,1.96 31.3427184,1.96 C31.4417476,1.96 31.5407767,1.96 31.6893204,1.96 C31.8378641,1.96 31.9368932,1.96 32.0854369,2.00666667 C32.2339806,2.00666667 32.3330097,2.05333333 32.4815534,2.05333333 C32.6300971,2.05333333 32.7291262,2.1 32.8281553,2.14666667 C32.976699,2.19333333 33.0757282,2.28666667 33.0262136,2.42666667 L32.9271845,2.75333333 C32.9271845,2.8 32.8776699,2.84666667 32.8281553,2.89333333 C32.7786408,2.89333333 32.7291262,2.89333333 32.6300971,2.89333333 C32.4320388,2.84666667 32.184466,2.84666667 31.9368932,2.8 C31.6893204,2.8 31.4912621,2.75333333 31.2932039,2.75333333 C30.9961165,2.75333333 30.7485437,2.8 30.6495146,2.89333333 C30.5504854,2.98666667 30.5009709,3.12666667 30.5009709,3.31333333 C30.5009709,3.5 30.5504854,3.59333333 30.6990291,3.68666667 C30.8475728,3.73333333 31.0456311,3.78 31.3427184,3.82666667 C31.5902913,3.87333333 31.7883495,3.92 32.0359223,3.96666667 C32.2834951,4.01333333 32.4320388,4.10666667 32.6300971,4.2 C32.7786408,4.29333333 32.9271845,4.43333333 33.0262136,4.62 C33.2242718,4.80666667 33.2737864,5.04 33.2737864,5.32 Z" id="Path"></path>
                <path d="M37.8291262,5.32 C37.8291262,5.6 37.7796117,5.83333333 37.6805825,6.02 C37.5815534,6.20666667 37.4330097,6.34666667 37.2349515,6.48666667 C37.0368932,6.58 36.838835,6.67333333 36.5912621,6.72 C36.3436893,6.76666667 36.0961165,6.81333333 35.8485437,6.81333333 C35.6009709,6.81333333 35.3038835,6.81333333 35.0563107,6.76666667 C34.7592233,6.72 34.5116505,6.67333333 34.3135922,6.62666667 C34.2145631,6.58 34.1650485,6.53333333 34.115534,6.48666667 C34.0660194,6.44 34.0660194,6.39333333 34.115534,6.3 L34.1650485,5.97333333 C34.1650485,5.88 34.2145631,5.83333333 34.2640777,5.83333333 C34.3135922,5.83333333 34.3631068,5.83333333 34.4621359,5.83333333 C34.561165,5.83333333 34.7097087,5.88 34.8087379,5.88 C34.9572816,5.88 35.0563107,5.88 35.2048544,5.92666667 C35.3533981,5.92666667 35.4524272,5.92666667 35.5514563,5.97333333 C35.6504854,5.97333333 35.7495146,5.97333333 35.8485437,5.97333333 C36.1456311,5.97333333 36.3932039,5.92666667 36.5417476,5.83333333 C36.6902913,5.74 36.7398058,5.6 36.7398058,5.41333333 C36.7398058,5.32 36.7398058,5.22666667 36.6902913,5.13333333 C36.6407767,5.04 36.6407767,4.99333333 36.5417476,4.94666667 C36.4427184,4.9 36.3932039,4.85333333 36.2941748,4.85333333 C36.1951456,4.80666667 36.0466019,4.80666667 35.8980583,4.76 C35.6504854,4.71333333 35.4029126,4.66666667 35.2048544,4.62 C35.0067961,4.57333333 34.8087379,4.48 34.6106796,4.38666667 C34.4621359,4.29333333 34.3135922,4.15333333 34.2145631,4.01333333 C34.115534,3.87333333 34.0660194,3.64 34.0660194,3.40666667 C34.0660194,2.94 34.2145631,2.61333333 34.561165,2.33333333 C34.907767,2.1 35.3533981,1.96 35.8980583,1.96 C35.9970874,1.96 36.0961165,1.96 36.2446602,1.96 C36.3932039,1.96 36.492233,1.96 36.6407767,2.00666667 C36.7893204,2.00666667 36.8883495,2.05333333 37.0368932,2.05333333 C37.1854369,2.05333333 37.284466,2.1 37.3834951,2.14666667 C37.5320388,2.19333333 37.631068,2.28666667 37.5815534,2.42666667 L37.4825243,2.75333333 C37.4825243,2.8 37.4330097,2.84666667 37.3834951,2.89333333 C37.3339806,2.89333333 37.284466,2.89333333 37.1854369,2.89333333 C36.9873786,2.84666667 36.7398058,2.84666667 36.492233,2.8 C36.2446602,2.8 36.0466019,2.75333333 35.8485437,2.75333333 C35.5514563,2.75333333 35.3038835,2.8 35.2048544,2.89333333 C35.1058252,2.98666667 35.0563107,3.12666667 35.0563107,3.31333333 C35.0563107,3.5 35.1058252,3.59333333 35.2543689,3.68666667 C35.4029126,3.73333333 35.6009709,3.78 35.8980583,3.82666667 C36.1456311,3.87333333 36.3436893,3.92 36.5912621,3.96666667 C36.838835,4.01333333 36.9873786,4.10666667 37.1854369,4.2 C37.3339806,4.29333333 37.4825243,4.43333333 37.5815534,4.62 C37.7796117,4.80666667 37.8291262,5.04 37.8291262,5.32 Z" id="Path"></path>
                <path d="M40.0572816,0.886666667 C40.0572816,0.98 40.0572816,1.02666667 40.0572816,1.12 C40.0572816,1.16666667 40.007767,1.26 39.9582524,1.30666667 C39.9087379,1.35333333 39.8592233,1.4 39.7601942,1.44666667 C39.661165,1.49333333 39.5621359,1.49333333 39.4631068,1.49333333 C39.3145631,1.49333333 39.215534,1.49333333 39.1660194,1.44666667 C39.0669903,1.4 39.0174757,1.35333333 38.9679612,1.30666667 C38.9184466,1.26 38.9184466,1.21333333 38.868932,1.12 C38.868932,1.07333333 38.868932,0.98 38.868932,0.933333333 C38.868932,0.793333333 38.9184466,0.653333333 38.9679612,0.56 C39.0669903,0.466666667 39.215534,0.42 39.4631068,0.42 C39.7106796,0.42 39.8592233,0.466666667 39.9582524,0.56 C40.007767,0.606666667 40.0572816,0.746666667 40.0572816,0.886666667 Z M40.007767,6.53333333 C40.007767,6.58 40.007767,6.62666667 39.9582524,6.67333333 C39.9582524,6.72 39.9087379,6.72 39.8097087,6.72 L39.1165049,6.72 C38.9679612,6.72 38.9184466,6.67333333 38.9184466,6.53333333 L38.9184466,2.28666667 C38.9184466,2.14666667 38.9679612,2.1 39.1165049,2.1 L39.8097087,2.1 C39.8592233,2.1 39.9087379,2.1 39.9582524,2.14666667 C39.9582524,2.19333333 40.007767,2.24 40.007767,2.28666667 L40.007767,6.53333333 Z" id="Shape"></path>
                <path d="M45.4543689,4.34 C45.4543689,4.62 45.4543689,4.9 45.4048544,5.18 C45.3553398,5.46 45.2563107,5.74 45.107767,5.97333333 C44.9592233,6.20666667 44.761165,6.39333333 44.4640777,6.58 C44.1669903,6.72 43.7708738,6.81333333 43.2757282,6.81333333 C42.7805825,6.81333333 42.384466,6.72 42.0873786,6.58 C41.7902913,6.44 41.592233,6.25333333 41.4436893,5.97333333 C41.2951456,5.74 41.1961165,5.46 41.1961165,5.18 C41.1466019,4.9 41.1466019,4.62 41.1466019,4.34 C41.1466019,4.10666667 41.1466019,3.87333333 41.1961165,3.59333333 C41.2456311,3.31333333 41.3446602,3.08 41.4932039,2.84666667 C41.6417476,2.61333333 41.8398058,2.42666667 42.1368932,2.24 C42.4339806,2.1 42.7805825,2.00666667 43.2757282,2.00666667 C43.7708738,2.00666667 44.1669903,2.05333333 44.4145631,2.19333333 C44.7116505,2.33333333 44.9097087,2.52 45.0582524,2.75333333 C45.2067961,2.98666667 45.3058252,3.22 45.3553398,3.5 C45.4048544,3.78 45.4543689,4.06 45.4543689,4.34 Z M44.315534,4.38666667 C44.315534,4.15333333 44.315534,3.92 44.2660194,3.73333333 C44.2165049,3.54666667 44.1669903,3.40666667 44.1174757,3.26666667 C44.0184466,3.12666667 43.9194175,3.03333333 43.7708738,2.98666667 C43.6223301,2.94 43.4737864,2.89333333 43.2262136,2.89333333 C43.0281553,2.89333333 42.8300971,2.94 42.731068,2.98666667 C42.6320388,3.03333333 42.4834951,3.12666667 42.4339806,3.26666667 C42.3349515,3.40666667 42.2854369,3.54666667 42.2854369,3.73333333 C42.2359223,3.92 42.2359223,4.15333333 42.2359223,4.38666667 C42.2359223,4.62 42.2359223,4.85333333 42.2854369,5.04 C42.3349515,5.22666667 42.384466,5.36666667 42.4339806,5.50666667 C42.4834951,5.64666667 42.6320388,5.74 42.731068,5.78666667 C42.8300971,5.83333333 43.0281553,5.88 43.2262136,5.88 C43.4737864,5.88 43.6223301,5.83333333 43.7708738,5.78666667 C43.9194175,5.74 44.0184466,5.64666667 44.1174757,5.50666667 C44.2165049,5.36666667 44.2660194,5.22666667 44.2660194,5.04 C44.2660194,4.85333333 44.315534,4.66666667 44.315534,4.38666667 Z" id="Shape"></path>
                <path d="M50.6038835,6.67333333 C50.5543689,6.72 50.5048544,6.72 50.4553398,6.72 L49.7126214,6.72 C49.5640777,6.72 49.5145631,6.67333333 49.5145631,6.53333333 L49.5145631,3.92 C49.5145631,3.64 49.4650485,3.40666667 49.3660194,3.26666667 C49.2669903,3.08 49.068932,3.03333333 48.7718447,3.03333333 C48.6728155,3.03333333 48.5737864,3.03333333 48.4252427,3.08 C48.276699,3.12666667 48.1776699,3.17333333 48.0291262,3.22 C47.8805825,3.26666667 47.7815534,3.31333333 47.6825243,3.36 C47.5834951,3.40666667 47.484466,3.45333333 47.4349515,3.5 L47.4349515,6.53333333 C47.4349515,6.67333333 47.3854369,6.72 47.2368932,6.72 L46.5436893,6.72 C46.3951456,6.72 46.3456311,6.67333333 46.3456311,6.53333333 L46.3456311,2.28666667 C46.3456311,2.14666667 46.3951456,2.1 46.5436893,2.1 L47.2368932,2.1 C47.3854369,2.1 47.4349515,2.14666667 47.4349515,2.28666667 L47.4349515,2.56666667 C47.4349515,2.56666667 47.4349515,2.56666667 47.4349515,2.56666667 C47.4349515,2.56666667 47.4349515,2.56666667 47.4349515,2.56666667 C47.5339806,2.52 47.6330097,2.42666667 47.7815534,2.38 C47.9300971,2.33333333 48.0291262,2.24 48.1776699,2.19333333 C48.3262136,2.14666667 48.4747573,2.1 48.623301,2.05333333 C48.7718447,2.00666667 48.9203883,2.00666667 49.068932,2.00666667 C49.415534,2.00666667 49.6631068,2.05333333 49.861165,2.14666667 C50.0592233,2.24 50.207767,2.38 50.3067961,2.52 C50.4058252,2.66 50.4553398,2.89333333 50.5048544,3.08 C50.5543689,3.31333333 50.5543689,3.5 50.5543689,3.78 L50.5543689,6.53333333 C50.6533981,6.58 50.6038835,6.62666667 50.6038835,6.67333333 Z" id="Path"></path>
            </g>
            <rect id="Rectangle" fill="#034DA1" x="125" y="14.2403101" width="2" height="19"></rect>
        </g>
    </g>
</svg>