<svg xmlns="http://www.w3.org/2000/svg" fill="#61c0e0" viewBox="0 0 75.66 30.09" class="injected-svg" data-src="/static/media/leda_logo.793d79d7.svg" xmlns:xlink="http://www.w3.org/1999/xlink">
	<path d="M4.38,30.07a2.37,2.37,0,0,1-2-1.1A15.61,15.61,0,0,1,0,21.34C0,19.93,0,4.15,0,2.36A2.36,2.36,0,0,1,2.39,0h0A2.37,2.37,0,0,1,4.76,2.37c0,7,0,17.78,0,18.77a10.77,10.77,0,0,0,1.62,5.31,2.36,2.36,0,0,1-.75,3.26A2.29,2.29,0,0,1,4.38,30.07Z"></path>
	<path d="M51.66,26.4a9.1,9.1,0,0,1-1.93-4.92V2.37a2.22,2.22,0,1,0-4.44,0V11.2A9.55,9.55,0,0,0,40,9.58,10.18,10.18,0,0,0,29.81,19.83a10.29,10.29,0,0,0,17.27,7.53A13.87,13.87,0,0,0,48,29a2.38,2.38,0,0,0,2,1.06,1.83,1.83,0,0,0,1.14-.39A2.33,2.33,0,0,0,51.66,26.4Zm-11.51-1a5.52,5.52,0,1,1,5.52-5.52A5.52,5.52,0,0,1,40.15,25.35Z"></path>
	<path d="M75.24,26.4a9.34,9.34,0,0,1-1.72-4.92V11.28a2.26,2.26,0,0,0-2.23-2.37,2.31,2.31,0,0,0-2.3,2.3A10,10,0,0,0,63.5,9.58a10.26,10.26,0,1,0,7,17.78,13.87,13.87,0,0,0,1,1.65,2.34,2.34,0,0,0,2,1.06,2.12,2.12,0,0,0,1.24-.39A2.35,2.35,0,0,0,75.24,26.4Zm-11.7-1a5.52,5.52,0,1,1,5.51-5.52A5.52,5.52,0,0,1,63.54,25.35Z"></path>
	<path d="M18,30.09a10.84,10.84,0,0,0,7.41-2.68,2.37,2.37,0,1,0-3-3.68A6.12,6.12,0,0,1,18,25.27a4.6,4.6,0,0,1-4.79-3.67H24.94a2.78,2.78,0,0,0,2.75-2.71c0-5.35-4.19-9.35-9.73-9.35a9.5,9.5,0,0,0-7.09,3.1,10.51,10.51,0,0,0-2.71,7.18A10.54,10.54,0,0,0,10.87,27,9.52,9.52,0,0,0,18,30.09Zm0-15.41c2.32,0,4.66,1.21,5,4.06H13.05A4.59,4.59,0,0,1,18,14.68Z"></path>
</svg>