<?xml version="1.0" encoding="UTF-8"?>
<svg width="140px" height="40px" viewBox="0 0 140 40" version="1.1" xmlns="http://www.w3.org/2000/svg" xmlns:xlink="http://www.w3.org/1999/xlink">
    <title>europa</title>
    <g id="europa" stroke="none" stroke-width="1" fill="none" fill-rule="evenodd">
        <g id="image" transform="translate(41.000000, 9.000000)" fill="#61C0E0" fill-rule="nonzero">
            <path d="M3.24808246,23 C2.64670015,22.9996881 2.08719947,22.6822924 1.76493978,22.1585868 C0.695565916,20.4041959 0.0873146581,18.3929352 0,16.3225874 C0,15.2441131 0,3.17437902 0,1.80525203 C0,1.32250581 0.187398839,0.859858072 0.520435268,0.520667626 C0.853471697,0.18147718 1.30435532,-0.00599055659 1.7723555,0 L1.7723555,0 C2.74300924,0 3.52987956,0.811743988 3.52987956,1.81290078 C3.52987956,7.16702869 3.52987956,15.4123857 3.52987956,16.1696123 C3.57933586,17.6084619 3.99354578,19.0088157 4.73122513,20.2311008 C4.97912885,20.6375325 5.05981662,21.129091 4.95543972,21.5970399 C4.85106282,22.0649889 4.57022394,22.4707603 4.17504663,22.7245946 C3.89836041,22.9068693 3.57638029,23.0025137 3.24808246,23 Z" id="Path"></path>
            <path d="M39.6563417,20.165607 C38.8057073,19.0801518 38.2937001,17.7647981 38.1851113,16.3859961 L38.1851113,1.70543428 C38.1851113,1.09614131 37.8625615,0.53313137 37.3389632,0.228484873 C36.815365,-0.0761616242 36.1702653,-0.0761616242 35.646667,0.228484873 C35.1230688,0.53313137 34.800519,1.09614131 34.800519,1.70543428 L34.800519,8.48876032 C33.6076287,7.68203945 32.20456,7.24903047 30.7679755,7.2442543 C28.6992511,7.24215708 26.7153269,8.07256578 25.2568173,9.55105293 C23.7983078,11.0295401 22.9859577,13.0337071 23.0001837,15.1184436 C23.0094444,18.2540734 24.8569319,21.0877631 27.7090961,22.3410075 C30.5612603,23.5942518 33.8788478,23.0301022 36.165028,20.903092 C36.3702485,21.3385534 36.6045575,21.7594772 36.86634,22.1629623 C37.2057325,22.6761531 37.7789795,22.9823327 38.3909311,22.9772687 C38.7058572,22.979119 39.0121385,22.8735251 39.259948,22.6776654 C39.6449875,22.3989818 39.9035025,21.9767452 39.9779519,21.5049384 C40.0524013,21.0331315 39.9366066,20.5509095 39.6563417,20.165607 Z M30.8823198,19.3973934 C28.5583766,19.3973934 26.6744483,17.4988394 26.6744483,15.1568543 C26.6744483,12.8148693 28.5583766,10.9163153 30.8823198,10.9163153 C33.2062631,10.9163153 35.0901913,12.8148693 35.0901913,15.1568543 C35.0692752,17.4838252 33.1914593,19.3590782 30.8823198,19.3589827 L30.8823198,19.3973934 Z" id="Shape"></path>
            <path d="M57.6554506,20.2061547 C56.8760678,19.1161624 56.4240319,17.827676 56.3521497,16.4912158 L56.3521497,8.78951324 C56.3748198,8.32662939 56.2075866,7.87446515 55.8888887,7.53695014 C55.5701907,7.19943514 55.1274408,7.00560087 54.6624048,7 C53.7016149,7.00413575 52.9237689,7.77924677 52.9196186,8.73665842 C51.6830283,7.93105401 50.2370719,7.50325404 48.7596638,7.50589615 C45.2786975,7.51274259 42.2265684,9.82451941 41.288365,13.1648886 C40.3501615,16.5052579 41.7545854,20.059952 44.7262507,21.8664152 C47.6979159,23.6728783 51.5124324,23.2907568 54.0637956,20.9310208 C54.2870459,21.363332 54.540236,21.7796268 54.8215288,22.1768844 C55.1549745,22.6855891 55.7273374,22.9878748 56.336995,22.9772575 C56.673409,22.9795618 57.0020591,22.8765595 57.2765841,22.6827806 C58.0660135,22.1022255 58.235435,20.9947279 57.6554506,20.2061547 L57.6554506,20.2061547 Z M48.7899731,19.4510927 C47.097548,19.454141 45.5700646,18.4405846 44.920276,16.8833615 C44.2704874,15.3261383 44.6264676,13.5321787 45.8221093,12.3385786 C47.0177511,11.1449785 48.8173922,10.7869977 50.3812857,11.4316769 C51.9451791,12.0763561 52.9650826,13.5966284 52.9650826,15.2831056 C52.944322,17.5673202 51.082338,19.4092878 48.7899731,19.4133324 L48.7899731,19.4510927 Z" id="Shape"></path>
            <path d="M13.5579339,22.9973733 C15.645962,23.0501673 17.6772865,22.3055079 19.2489256,20.9111234 C19.7537947,20.4939525 20.0007387,19.8354662 19.8967362,19.1837099 C19.7927337,18.5319536 19.3535852,17.9859446 18.7447136,17.7513592 C18.135842,17.5167738 17.4497494,17.6292511 16.9448804,18.046422 C16.0166766,18.8841951 14.7988867,19.3152338 13.5579339,19.2452373 C11.8006434,19.3551034 10.2317554,18.1367192 9.87914167,16.3883204 L18.8879585,16.3883204 C20.0374907,16.376114 20.9711164,15.4435659 21,14.278717 C21,10.1140017 17.7820168,7.00019591 13.5272133,7.00019591 C11.4565191,6.98493207 9.47696253,7.86222606 8.08198639,9.41339541 C6.71792699,10.9439667 5.97454881,12.9402711 6.00066553,15.0026768 C5.97682463,17.0646764 6.71990005,19.0601677 8.08198639,20.5919583 C9.48666537,22.1467244 11.478157,23.0215253 13.5579339,22.9973733 Z M13.5579339,11.0014364 C15.3397289,11.0014364 17.1368842,11.9433626 17.3980093,14.1619493 L9.75625926,14.1619493 C9.96987543,12.2387191 11.655364,10.8374923 13.5579339,11.0014364 L13.5579339,11.0014364 Z" id="Shape"></path>
        </g>
    </g>
</svg>