<?xml version="1.0" encoding="UTF-8"?>
<svg width="140px" height="40px" viewBox="0 0 140 40" version="1.1" xmlns="http://www.w3.org/2000/svg" xmlns:xlink="http://www.w3.org/1999/xlink">
    <title>europa</title>
    <g id="europa" stroke="none" stroke-width="1" fill="none" fill-rule="evenodd">
        <polyline id="Path" fill="#1F2B3D" points="31.0006739 34 29.0416703 27 23.5 23.4955862 20.0006739 23 20.0006739 19.4019121 27.3555201 19.4019121 27.3555201 12 34.6232524 12 34.6232524 19.4019121 42.0006739 19.4019121 42.0006739 26.6747991 34.6232524 26.6747991 34.6232524 34"></polyline>
        <path d="M28,34 C28,29.581722 24.418278,26 20,26" id="Path" stroke="#1F2B3D"></path>
        <path d="M25,34 C25,31.2385763 22.7614237,29 20,29" id="Path" stroke="#1F2B3D"></path>
        <path d="M31,34 C31,27.9248678 26.0751322,23 20,23" id="Shape" stroke="#1F2B3D"></path>
        <path d="M50.112,29.18 C51.57,29.18 52.668,28.532 53.406,27.236 L53.406,29 L54.774,29 L54.774,19.388 L53.388,19.388 L53.388,24.878 C53.388,25.742 53.118,26.462 52.578,27.038 C52.038,27.614 51.354,27.902 50.526,27.902 C48.798,27.902 47.862,26.768 47.862,24.986 L47.862,19.388 L46.476,19.388 L46.476,25.328 C46.476,27.632 47.808,29.18 50.112,29.18 Z M59.814,29 L59.814,23.492 L62.802,23.492 C64.44,23.492 65.718,23.078 66.636,22.268 C67.554,21.44 68.004,20.396 68.004,19.136 C68.004,17.948 67.59,16.94 66.744,16.13 C65.898,15.32 64.674,14.906 63.054,14.906 L58.338,14.906 L58.338,29 L59.814,29 Z M62.856,22.124 L59.814,22.124 L59.814,16.292 L62.928,16.292 C64.206,16.292 65.106,16.58 65.664,17.138 C66.222,17.696 66.492,18.38 66.492,19.19 C66.492,19.982 66.186,20.666 65.574,21.26 C64.962,21.836 64.062,22.124 62.856,22.124 Z M70.2,29 L71.748,25.4 L79.434,25.4 L80.964,29 L82.53,29 L76.446,14.906 L74.772,14.906 L68.688,29 L70.2,29 Z M78.858,24.05 L72.306,24.05 L75.582,16.436 L78.858,24.05 Z M90.594,29.144 C92.592,29.144 94.194,28.532 95.382,27.308 C96.588,26.084 97.182,24.554 97.182,22.718 L97.182,22.178 L89.712,22.178 L89.712,23.546 L95.598,23.546 C95.526,24.842 95.004,25.868 94.032,26.624 C93.078,27.38 91.944,27.758 90.63,27.758 C88.956,27.758 87.624,27.2 86.598,26.084 C85.59,24.95 85.086,23.564 85.086,21.908 C85.086,20.234 85.626,18.866 86.688,17.786 C87.768,16.706 89.082,16.166 90.612,16.166 C91.962,16.166 93.042,16.508 93.852,17.174 C94.662,17.84 95.256,18.65 95.598,19.64 L96.93,19.028 C96.534,17.858 95.796,16.85 94.698,16.022 C93.618,15.176 92.268,14.762 90.648,14.762 C88.632,14.762 86.94,15.464 85.59,16.85 C84.24,18.236 83.556,19.964 83.556,21.998 C83.556,24.05 84.204,25.76 85.5,27.11 C86.796,28.46 88.488,29.144 90.594,29.144 Z M108.864,29 L108.864,27.632 L101.448,27.632 L101.448,22.52 L108.162,22.52 L108.162,21.152 L101.448,21.152 L101.448,16.274 L108.792,16.274 L108.792,14.906 L99.972,14.906 L99.972,29 L108.864,29 Z M116.118,29 C118.224,29 119.988,28.334 121.41,27.02 C122.832,25.688 123.552,23.996 123.552,21.926 C123.552,19.928 122.85,18.254 121.464,16.922 C120.078,15.572 118.296,14.906 116.118,14.906 L111.924,14.906 L111.924,29 L116.118,29 Z M116.064,27.614 L113.4,27.614 L113.4,16.292 L116.046,16.292 C117.864,16.292 119.304,16.832 120.384,17.894 C121.482,18.956 122.022,20.324 122.022,21.962 C122.022,23.618 121.464,24.968 120.366,26.03 C119.268,27.092 117.846,27.614 116.064,27.614 Z" id="uPAGED" fill="#1F2B3D" fill-rule="nonzero"></path>
    </g>
</svg>